<?xml version="1.0" standalone="no"?>
<!DOCTYPE svg PUBLIC "-//W3C//DTD SVG 20010904//EN"
 "http://www.w3.org/TR/2001/REC-SVG-20010904/DTD/svg10.dtd">
<svg version="1.0" xmlns="http://www.w3.org/2000/svg"
 width="1055.000000pt" height="435.000000pt" viewBox="0 0 1055.000000 435.000000"
 preserveAspectRatio="xMidYMid meet">

<g transform="translate(0.000000,435.000000) scale(0.100000,-0.100000)"
fill="#000000" stroke="none">
<path d="M0 2175 l0 -2175 5275 0 5275 0 0 2175 0 2175 -5275 0 -5275 0 0
-2175z m6250 1325 l0 -390 -390 0 -390 0 0 390 0 390 390 0 390 0 0 -390z
m-1316 326 c92 -28 159 -93 193 -188 9 -24 18 -85 21 -135 l4 -93 -115 0 -115
0 -4 76 c-3 71 -6 78 -36 105 -45 40 -99 40 -144 0 -28 -25 -32 -35 -36 -92
-3 -49 1 -78 18 -124 20 -53 39 -76 154 -190 72 -71 148 -151 168 -176 86
-105 126 -253 108 -398 -18 -135 -74 -221 -180 -270 -49 -23 -67 -26 -170 -26
-141 0 -196 20 -265 97 -60 67 -85 147 -85 274 l0 94 115 0 115 0 0 -77 c0
-99 19 -142 74 -162 33 -13 44 -13 80 0 75 26 97 122 54 236 -18 49 -42 79
-169 208 -174 177 -181 185 -219 267 -41 87 -56 196 -41 294 23 157 87 239
216 280 55 17 201 17 259 0z m-3034 -636 l0 -640 190 0 190 0 0 -110 0 -110
-315 0 -315 0 0 750 0 750 125 0 125 0 0 -640z m1120 525 l0 -115 -200 0 -200
0 0 -200 0 -200 160 0 160 0 0 -110 0 -110 -160 0 -160 0 0 -215 0 -215 200 0
200 0 0 -110 0 -110 -320 0 -320 0 0 750 0 750 320 0 320 0 0 -115z m441 -149
c46 -145 86 -262 89 -261 3 2 43 120 90 264 l85 260 113 1 c61 0 112 -4 112
-9 0 -4 -54 -169 -121 -366 l-120 -358 127 -371 c70 -204 129 -377 131 -383 4
-10 -25 -13 -125 -13 l-131 0 -93 287 -93 287 -93 -287 -93 -287 -115 0 c-63
0 -114 3 -114 6 0 4 58 176 129 384 l129 377 -124 366 -123 367 128 0 127 0
85 -264z m859 -486 l0 -750 -120 0 -120 0 0 750 0 750 120 0 120 0 0 -750z
m1930 -470 l0 -390 -390 0 -390 0 0 390 0 390 390 0 390 0 0 -390z m880 0 l0
-390 -390 0 -390 0 0 390 0 390 390 0 390 0 0 -390z m-880 -880 l0 -390 -390
0 -390 0 0 390 0 390 390 0 390 0 0 -390z m880 0 l0 -390 -390 0 -390 0 0 390
0 390 390 0 390 0 0 -390z m880 0 l0 -390 -390 0 -390 0 0 390 0 390 390 0
390 0 0 -390z m-3076 336 c92 -28 159 -93 193 -188 9 -24 18 -85 21 -135 l4
-93 -115 0 -115 0 -4 76 c-3 71 -6 78 -36 105 -45 40 -99 40 -144 0 -28 -25
-32 -35 -36 -92 -3 -49 1 -78 18 -124 20 -53 39 -76 154 -190 72 -71 148 -151
168 -176 86 -105 126 -253 108 -398 -18 -135 -74 -221 -180 -270 -49 -23 -67
-26 -170 -26 -141 0 -196 20 -265 97 -60 67 -85 147 -85 274 l0 94 115 0 115
0 0 -77 c0 -99 19 -142 74 -162 33 -13 44 -13 80 0 75 26 97 122 54 236 -18
49 -42 79 -169 208 -174 177 -181 185 -219 267 -41 87 -56 196 -41 294 23 157
87 239 216 280 55 17 201 17 259 0z m-2664 -636 l0 -640 195 0 195 0 0 -110 0
-110 -315 0 -315 0 0 750 0 750 120 0 120 0 0 -640z m1044 408 c21 -128 75
-465 120 -748 l82 -515 -119 -3 c-66 -1 -122 -1 -124 1 -3 4 -43 247 -43 263
0 2 -62 4 -139 4 l-139 0 -16 -113 c-9 -61 -19 -122 -22 -134 -4 -22 -8 -23
-114 -23 -61 0 -110 3 -110 8 -1 4 52 341 117 749 l118 743 176 0 176 0 37
-232z m822 209 c74 -24 138 -85 164 -155 28 -73 38 -235 20 -324 -16 -82 -40
-128 -91 -172 -24 -20 -37 -36 -31 -36 25 0 100 -82 123 -133 20 -46 24 -71
27 -214 4 -143 2 -171 -17 -231 -25 -85 -73 -142 -149 -179 l-57 -28 -252 -3
-253 -3 0 751 0 752 233 -4 c178 -4 244 -9 283 -21z m2114 -1197 l0 -390 -390
0 -390 0 0 390 0 390 390 0 390 0 0 -390z m880 0 l0 -390 -390 0 -390 0 0 390
0 390 390 0 390 0 0 -390z m880 0 l0 -390 -390 0 -390 0 0 390 0 390 390 0
390 0 0 -390z m885 0 l0 -385 -387 -3 -388 -2 0 390 0 390 388 -2 387 -3 0
-385z"/>
<path d="M3034 1393 l-50 -338 53 -3 c29 -2 77 -2 106 0 l53 3 -51 338 c-27
185 -52 337 -55 337 -3 0 -28 -152 -56 -337z"/>
<path d="M3860 1650 l0 -190 60 0 c131 0 160 35 160 195 0 162 -18 185 -144
185 l-76 0 0 -190z"/>
<path d="M3860 1016 l0 -226 91 0 c86 0 92 1 119 28 35 36 44 88 38 225 -7
160 -30 186 -170 195 l-78 5 0 -227z"/>
</g>
</svg>
