<svg id="svg" version="1.1" xmlns="http://www.w3.org/2000/svg" xmlns:xlink="http://www.w3.org/1999/xlink" width="400" height="191.62995594713655" viewBox="0, 0, 400,191.62995594713655"><g id="svgg"><path id="path0" d="M258.491 50.149 C 258.420 50.221,258.361 59.839,258.361 71.522 L 258.361 92.765 279.729 92.765 L 301.097 92.765 301.052 71.442 L 301.006 50.120 279.814 50.070 C 268.158 50.042,258.563 50.078,258.491 50.149 M258.870 98.371 C 258.919 98.450,258.824 98.515,258.659 98.515 C 258.389 98.515,258.364 100.607,258.408 119.837 L 258.457 141.160 279.407 141.208 C 293.631 141.241,300.477 141.193,300.730 141.058 C 301.095 140.862,301.102 140.454,301.102 119.690 L 301.102 98.522 300.671 98.420 C 299.992 98.258,258.771 98.210,258.870 98.371 M258.489 146.558 C 258.239 146.808,258.340 188.690,258.591 188.941 C 258.964 189.313,300.455 189.270,300.828 188.897 C 301.062 188.663,301.102 185.571,301.102 167.645 L 301.102 146.667 300.671 146.551 C 300.078 146.392,258.648 146.399,258.489 146.558 " stroke="none" fill="#bcbcbc" fill-rule="evenodd"></path><path id="path1" d="M210.190 2.811 C 209.974 3.027,210.038 44.236,210.254 44.370 C 210.381 44.449,210.446 37.472,210.446 23.586 C 210.446 12.089,210.417 2.683,210.382 2.683 C 210.347 2.683,210.260 2.741,210.190 2.811 M169.813 4.408 C 169.813 4.514,169.339 4.600,168.759 4.600 C 168.179 4.600,167.705 4.686,167.705 4.792 C 167.705 4.897,167.409 4.983,167.048 4.983 C 166.686 4.983,166.261 5.113,166.103 5.271 C 165.945 5.429,165.637 5.558,165.419 5.558 C 165.200 5.558,165.022 5.644,165.022 5.750 C 165.022 5.855,164.806 5.942,164.542 5.942 C 164.279 5.942,164.063 6.028,164.063 6.133 C 164.063 6.239,163.891 6.325,163.680 6.325 C 163.467 6.325,163.297 6.453,163.297 6.612 C 163.297 6.770,163.140 6.900,162.949 6.900 C 162.758 6.900,162.417 7.072,162.191 7.283 C 161.964 7.494,161.689 7.667,161.580 7.667 C 161.470 7.667,161.380 7.796,161.380 7.954 C 161.380 8.112,161.250 8.241,161.091 8.241 C 160.735 8.241,159.655 9.247,159.655 9.578 C 159.655 9.711,159.372 10.089,159.026 10.420 C 158.680 10.750,158.278 11.258,158.131 11.548 C 157.985 11.838,157.794 12.075,157.706 12.075 C 157.618 12.075,157.547 12.290,157.547 12.554 C 157.547 12.817,157.467 13.033,157.369 13.033 C 157.117 13.033,156.588 14.156,156.588 14.692 C 156.588 14.939,156.502 15.141,156.397 15.141 C 156.291 15.141,156.205 15.443,156.205 15.812 C 156.205 16.181,156.119 16.483,156.013 16.483 C 155.908 16.483,155.822 16.862,155.822 17.325 C 155.822 17.897,155.729 18.202,155.534 18.277 C 155.320 18.360,155.247 18.702,155.247 19.628 C 155.247 20.310,155.161 20.922,155.055 20.987 C 154.939 21.059,154.863 22.487,154.863 24.629 C 154.863 26.771,154.939 28.198,155.055 28.270 C 155.161 28.335,155.247 28.987,155.247 29.719 C 155.247 30.774,155.306 31.049,155.534 31.049 C 155.747 31.049,155.822 31.273,155.822 31.912 C 155.822 32.386,155.908 32.774,156.013 32.774 C 156.119 32.774,156.205 33.162,156.205 33.637 C 156.205 34.111,156.291 34.499,156.397 34.499 C 156.502 34.499,156.588 34.715,156.588 34.978 C 156.588 35.242,156.675 35.458,156.780 35.458 C 156.885 35.458,156.972 35.667,156.972 35.923 C 156.972 36.179,157.101 36.518,157.259 36.676 C 157.417 36.834,157.547 37.099,157.547 37.265 C 157.547 37.430,157.633 37.566,157.738 37.566 C 157.844 37.566,157.930 37.745,157.930 37.963 C 157.930 38.387,158.345 38.908,158.683 38.908 C 158.796 38.908,158.888 39.123,158.888 39.387 C 158.888 39.650,158.975 39.866,159.080 39.866 C 159.185 39.866,159.272 40.038,159.272 40.249 C 159.272 40.460,159.358 40.632,159.463 40.632 C 159.569 40.632,159.655 40.762,159.655 40.920 C 159.655 41.078,159.747 41.207,159.860 41.207 C 160.169 41.207,160.613 41.714,160.613 42.065 C 160.613 42.409,161.441 43.316,161.755 43.316 C 161.865 43.316,161.955 43.426,161.955 43.561 C 161.955 43.696,162.127 43.930,162.338 44.082 C 162.549 44.234,162.722 44.468,162.722 44.602 C 162.722 44.898,167.787 50.024,168.080 50.024 C 168.194 50.024,168.755 50.498,169.326 51.078 C 169.896 51.658,170.455 52.132,170.567 52.132 C 170.680 52.132,170.771 52.222,170.771 52.333 C 170.771 52.593,171.653 53.474,171.913 53.474 C 172.023 53.474,172.113 53.563,172.113 53.672 C 172.113 53.902,174.708 56.540,174.935 56.540 C 175.018 56.540,175.208 56.821,175.357 57.163 C 175.506 57.506,175.915 58.061,176.266 58.396 C 176.617 58.732,176.905 59.142,176.905 59.307 C 176.905 59.472,176.991 59.607,177.096 59.607 C 177.202 59.607,177.291 59.758,177.294 59.943 C 177.302 60.357,177.733 60.949,178.028 60.949 C 178.148 60.949,178.246 61.202,178.246 61.512 C 178.246 61.822,178.333 62.129,178.438 62.195 C 178.543 62.260,178.630 62.524,178.630 62.781 C 178.630 63.038,178.716 63.249,178.821 63.249 C 178.927 63.249,179.013 63.541,179.013 63.899 C 179.013 64.300,179.123 64.592,179.300 64.660 C 179.512 64.741,179.588 65.074,179.588 65.915 C 179.588 66.544,179.674 67.113,179.780 67.178 C 179.885 67.243,179.971 67.852,179.971 68.531 C 179.971 69.226,179.888 69.765,179.780 69.765 C 179.674 69.765,179.588 70.196,179.588 70.724 C 179.588 71.448,179.518 71.682,179.300 71.682 C 179.111 71.682,179.013 71.871,179.013 72.238 C 179.013 72.773,177.890 74.173,177.460 74.173 C 177.366 74.173,177.288 74.303,177.288 74.461 C 177.288 74.621,177.118 74.748,176.905 74.748 C 176.694 74.748,176.521 74.835,176.521 74.940 C 176.521 75.046,176.219 75.132,175.851 75.132 C 175.482 75.132,175.180 75.218,175.180 75.323 C 175.180 75.576,172.173 75.576,172.017 75.323 C 171.952 75.218,171.645 75.132,171.335 75.132 C 171.025 75.132,170.771 75.046,170.771 74.940 C 170.771 74.835,170.611 74.748,170.415 74.748 C 170.219 74.748,169.897 74.533,169.699 74.269 C 169.501 74.006,169.230 73.790,169.097 73.790 C 168.964 73.790,168.855 73.618,168.855 73.407 C 168.855 73.196,168.769 73.023,168.663 73.023 C 168.558 73.023,168.471 72.808,168.471 72.544 C 168.471 72.281,168.385 72.065,168.280 72.065 C 168.174 72.065,168.088 71.824,168.088 71.529 C 168.088 71.233,168.004 70.907,167.900 70.804 C 167.792 70.696,167.691 68.793,167.661 66.309 L 167.609 62.003 161.045 61.952 L 154.480 61.902 154.480 65.642 C 154.480 68.007,154.551 69.382,154.672 69.382 C 154.787 69.382,154.863 70.149,154.863 71.299 C 154.863 72.448,154.940 73.215,155.055 73.215 C 155.161 73.215,155.247 73.646,155.247 74.173 C 155.247 74.898,155.317 75.132,155.534 75.132 C 155.741 75.132,155.822 75.343,155.822 75.887 C 155.822 76.303,155.908 76.696,156.013 76.761 C 156.119 76.826,156.205 77.090,156.205 77.347 C 156.205 77.605,156.291 77.815,156.397 77.815 C 156.502 77.815,156.588 77.988,156.588 78.198 C 156.588 78.409,156.675 78.582,156.780 78.582 C 156.885 78.582,156.972 78.797,156.972 79.061 C 156.972 79.359,157.080 79.540,157.259 79.540 C 157.417 79.540,157.547 79.696,157.547 79.887 C 157.547 80.078,157.719 80.420,157.930 80.646 C 158.141 80.872,158.313 81.190,158.313 81.353 C 158.313 81.515,158.443 81.648,158.601 81.648 C 158.759 81.648,158.888 81.738,158.888 81.849 C 158.888 82.109,159.769 82.990,160.030 82.990 C 160.140 82.990,160.230 83.086,160.230 83.204 C 160.230 83.423,161.547 84.715,161.771 84.715 C 161.839 84.715,162.146 84.930,162.452 85.194 C 162.759 85.457,163.160 85.673,163.345 85.673 C 163.529 85.673,163.680 85.759,163.680 85.865 C 163.680 85.970,163.886 86.057,164.139 86.057 C 164.391 86.057,164.647 86.186,164.708 86.344 C 164.768 86.502,165.031 86.632,165.292 86.632 C 165.552 86.632,165.819 86.718,165.884 86.823 C 165.949 86.929,166.251 87.015,166.555 87.015 C 166.859 87.015,167.161 87.101,167.226 87.207 C 167.291 87.312,167.804 87.398,168.366 87.398 C 169.098 87.398,169.420 87.480,169.499 87.686 C 169.593 87.930,170.277 87.973,174.030 87.973 C 177.782 87.973,178.467 87.930,178.560 87.686 C 178.639 87.479,178.962 87.398,179.704 87.398 C 180.273 87.398,180.738 87.312,180.738 87.207 C 180.738 87.101,181.040 87.015,181.409 87.015 C 181.778 87.015,182.080 86.929,182.080 86.823 C 182.080 86.718,182.295 86.632,182.559 86.632 C 182.857 86.632,183.038 86.523,183.038 86.344 C 183.038 86.143,183.240 86.057,183.709 86.057 C 184.078 86.057,184.379 85.970,184.379 85.865 C 184.379 85.759,184.552 85.673,184.763 85.673 C 184.974 85.673,185.146 85.587,185.146 85.482 C 185.146 85.376,185.239 85.290,185.351 85.290 C 185.464 85.290,185.677 85.182,185.824 85.050 C 186.399 84.534,186.668 84.332,186.776 84.332 C 186.970 84.332,187.829 83.401,187.829 83.190 C 187.829 83.080,187.920 82.990,188.030 82.990 C 188.290 82.990,189.171 82.109,189.171 81.849 C 189.171 81.738,189.257 81.648,189.363 81.648 C 189.468 81.648,189.554 81.476,189.554 81.265 C 189.554 81.054,189.653 80.882,189.773 80.882 C 190.067 80.882,190.499 80.290,190.507 79.875 C 190.510 79.691,190.599 79.540,190.704 79.540 C 190.810 79.540,190.896 79.365,190.896 79.151 C 190.896 78.937,191.025 78.712,191.184 78.651 C 191.342 78.590,191.471 78.377,191.471 78.178 C 191.471 77.978,191.557 77.815,191.663 77.815 C 191.768 77.815,191.854 77.599,191.854 77.336 C 191.854 77.072,191.941 76.857,192.046 76.857 C 192.151 76.857,192.238 76.478,192.238 76.015 C 192.238 75.443,192.330 75.137,192.525 75.062 C 192.714 74.990,192.813 74.691,192.813 74.191 C 192.813 73.772,192.899 73.376,193.004 73.311 C 193.110 73.246,193.196 72.508,193.196 71.671 C 193.196 70.784,193.276 70.149,193.388 70.149 C 193.504 70.149,193.579 69.318,193.579 68.040 C 193.579 66.762,193.504 65.932,193.388 65.932 C 193.273 65.932,193.196 65.169,193.196 64.027 C 193.196 62.963,193.111 62.069,193.004 62.003 C 192.899 61.938,192.813 61.508,192.813 61.047 C 192.813 60.558,192.693 60.090,192.525 59.922 C 192.367 59.764,192.238 59.370,192.238 59.046 C 192.238 58.722,192.151 58.457,192.046 58.457 C 191.941 58.457,191.854 58.155,191.854 57.786 C 191.854 57.417,191.768 57.115,191.663 57.115 C 191.557 57.115,191.471 56.900,191.471 56.636 C 191.471 56.338,191.362 56.157,191.184 56.157 C 191.024 56.157,190.896 55.987,190.896 55.774 C 190.896 55.563,190.810 55.391,190.704 55.391 C 190.599 55.391,190.513 55.089,190.513 54.720 C 190.513 54.351,190.426 54.049,190.321 54.049 C 190.216 54.049,190.129 53.917,190.129 53.755 C 190.129 53.594,190.000 53.412,189.842 53.352 C 189.684 53.291,189.554 53.121,189.554 52.974 C 189.554 52.827,189.468 52.707,189.363 52.707 C 189.257 52.707,189.171 52.531,189.171 52.315 C 189.171 52.100,188.955 51.708,188.692 51.444 C 188.428 51.180,188.213 50.895,188.213 50.810 C 188.213 50.725,187.954 50.385,187.638 50.054 C 187.322 49.723,187.063 49.365,187.063 49.259 C 187.063 49.153,186.933 49.066,186.775 49.066 C 186.617 49.066,186.488 48.930,186.488 48.764 C 186.488 48.599,186.380 48.354,186.248 48.221 C 186.116 48.088,185.837 47.749,185.628 47.468 C 185.418 47.187,185.175 46.957,185.087 46.957 C 184.899 46.957,184.379 46.465,184.379 46.287 C 184.379 46.127,183.869 45.616,183.709 45.616 C 183.549 45.616,183.038 45.105,183.038 44.945 C 183.038 44.785,182.527 44.274,182.367 44.274 C 182.210 44.274,181.696 43.764,181.696 43.608 C 181.696 43.470,180.798 42.549,180.663 42.549 C 180.612 42.549,179.950 41.945,179.191 41.207 C 178.433 40.470,177.743 39.866,177.659 39.866 C 177.436 39.866,175.180 37.596,175.180 37.372 C 175.180 37.268,175.090 37.183,174.979 37.183 C 174.719 37.183,173.838 36.301,173.838 36.041 C 173.838 35.931,173.709 35.841,173.551 35.841 C 173.392 35.841,173.263 35.687,173.263 35.500 C 173.263 35.312,173.091 35.035,172.880 34.883 C 172.669 34.731,172.496 34.533,172.496 34.443 C 172.496 34.354,172.389 34.160,172.257 34.013 C 171.688 33.379,171.538 33.162,171.538 32.974 C 171.538 32.864,171.452 32.774,171.346 32.774 C 171.241 32.774,171.155 32.602,171.155 32.391 C 171.155 32.180,171.069 32.008,170.963 32.008 C 170.858 32.008,170.771 31.876,170.771 31.714 C 170.771 31.553,170.642 31.371,170.484 31.310 C 170.326 31.250,170.196 31.080,170.196 30.933 C 170.196 30.786,170.110 30.666,170.005 30.666 C 169.899 30.666,169.813 30.450,169.813 30.187 C 169.813 29.923,169.727 29.708,169.621 29.708 C 169.516 29.708,169.430 29.406,169.430 29.037 C 169.430 28.568,169.343 28.366,169.142 28.366 C 168.922 28.366,168.855 28.121,168.855 27.312 C 168.855 26.732,168.769 26.258,168.663 26.258 C 168.546 26.258,168.471 25.395,168.471 24.054 C 168.471 22.712,168.546 21.850,168.663 21.850 C 168.769 21.850,168.855 21.515,168.855 21.106 C 168.855 20.680,168.977 20.262,169.142 20.125 C 169.300 19.993,169.430 19.724,169.430 19.526 C 169.430 19.328,169.516 19.166,169.621 19.166 C 169.727 19.166,169.813 18.988,169.813 18.769 C 169.813 18.261,170.249 17.825,170.758 17.825 C 170.976 17.825,171.155 17.738,171.155 17.633 C 171.155 17.528,171.327 17.441,171.538 17.441 C 171.749 17.441,171.921 17.355,171.921 17.250 C 171.921 17.144,172.183 17.058,172.502 17.058 C 172.842 17.058,173.129 16.939,173.194 16.770 C 173.318 16.447,175.563 16.342,175.563 16.659 C 175.563 16.756,175.843 16.893,176.186 16.963 C 177.003 17.130,177.863 17.497,177.863 17.680 C 177.863 17.759,177.998 17.825,178.164 17.825 C 178.554 17.825,179.013 18.287,179.013 18.679 C 179.013 18.848,179.142 19.036,179.300 19.097 C 179.459 19.158,179.588 19.365,179.588 19.559 C 179.588 19.752,179.674 19.964,179.780 20.029 C 179.885 20.094,179.971 20.396,179.971 20.700 C 179.971 21.003,180.057 21.305,180.163 21.370 C 180.278 21.442,180.355 22.778,180.355 24.736 L 180.355 27.983 186.775 27.983 L 193.196 27.983 193.196 27.504 C 193.196 27.240,193.282 27.024,193.388 27.024 C 193.493 27.024,193.579 26.766,193.579 26.449 C 193.579 26.119,193.477 25.873,193.340 25.872 C 193.181 25.870,193.197 25.807,193.388 25.686 C 193.625 25.535,193.633 25.435,193.436 25.116 C 193.276 24.859,193.196 23.899,193.196 22.247 C 193.196 20.798,193.116 19.715,193.004 19.645 C 192.899 19.580,192.813 19.098,192.813 18.574 C 192.813 17.904,192.727 17.588,192.525 17.511 C 192.330 17.436,192.238 17.130,192.238 16.558 C 192.238 16.095,192.151 15.716,192.046 15.716 C 191.941 15.716,191.854 15.414,191.854 15.046 C 191.854 14.677,191.768 14.375,191.663 14.375 C 191.557 14.375,191.471 14.199,191.471 13.985 C 191.471 13.771,191.342 13.546,191.184 13.486 C 191.025 13.425,190.896 13.212,190.896 13.013 C 190.896 12.813,190.810 12.650,190.704 12.650 C 190.599 12.650,190.513 12.471,190.513 12.253 C 190.513 11.828,190.098 11.308,189.760 11.308 C 189.647 11.308,189.554 11.135,189.554 10.923 C 189.554 10.711,189.296 10.267,188.979 9.936 C 188.663 9.605,188.404 9.261,188.404 9.171 C 188.404 9.082,188.297 9.006,188.165 9.004 C 188.033 9.002,187.667 8.700,187.352 8.333 C 187.037 7.967,186.646 7.667,186.484 7.667 C 186.322 7.667,186.065 7.494,185.913 7.283 C 185.761 7.072,185.563 6.900,185.473 6.900 C 185.384 6.900,185.190 6.792,185.043 6.660 C 184.361 6.049,184.178 5.942,183.813 5.942 C 183.597 5.942,183.421 5.855,183.421 5.750 C 183.421 5.644,183.129 5.558,182.771 5.558 C 182.370 5.558,182.078 5.448,182.010 5.271 C 181.946 5.103,181.659 4.983,181.319 4.983 C 180.999 4.983,180.738 4.897,180.738 4.792 C 180.738 4.686,180.264 4.600,179.684 4.600 C 179.104 4.600,178.630 4.514,178.630 4.408 C 178.630 4.286,177.032 4.217,174.221 4.217 C 171.410 4.217,169.813 4.286,169.813 4.408 M2.731 5.109 C 2.541 5.187,2.492 13.568,2.492 46.111 L 2.492 87.015 19.837 87.015 L 37.183 87.015 37.183 80.882 L 37.183 74.748 26.642 74.748 L 16.101 74.748 16.052 39.914 L 16.004 5.079 9.487 5.045 C 5.903 5.026,2.863 5.055,2.731 5.109 M42.166 45.999 L 42.166 87.015 59.990 87.015 L 77.815 87.015 77.815 80.882 L 77.815 74.748 66.794 74.748 L 55.774 74.748 55.774 63.249 L 55.774 51.749 64.303 51.749 L 72.832 51.749 72.832 45.616 L 72.832 39.483 64.303 39.483 L 55.774 39.483 55.774 28.463 L 55.774 17.444 66.747 17.395 L 77.719 17.345 77.770 11.321 C 77.809 6.629,77.767 5.263,77.578 5.143 C 77.445 5.058,69.423 4.988,59.751 4.986 L 42.166 4.983 42.166 45.999 M82.737 5.109 C 82.533 5.312,82.584 6.325,82.798 6.325 C 82.904 6.325,82.990 6.627,82.990 6.996 C 82.990 7.464,83.077 7.667,83.277 7.667 C 83.478 7.667,83.565 7.869,83.565 8.337 C 83.565 8.706,83.651 9.008,83.757 9.008 C 83.862 9.008,83.948 9.310,83.948 9.679 C 83.948 10.048,84.034 10.350,84.140 10.350 C 84.245 10.350,84.332 10.603,84.332 10.913 C 84.332 11.223,84.408 11.524,84.502 11.582 C 84.595 11.640,84.728 11.990,84.798 12.360 C 84.867 12.730,85.006 13.033,85.107 13.033 C 85.208 13.033,85.290 13.287,85.290 13.597 C 85.290 13.907,85.376 14.214,85.482 14.279 C 85.587 14.344,85.673 14.651,85.673 14.961 C 85.673 15.271,85.759 15.525,85.865 15.525 C 85.970 15.525,86.057 15.786,86.057 16.106 C 86.057 16.445,86.176 16.733,86.344 16.797 C 86.521 16.865,86.632 17.156,86.632 17.558 C 86.632 17.915,86.718 18.208,86.823 18.208 C 86.929 18.208,87.015 18.462,87.015 18.772 C 87.015 19.082,87.101 19.389,87.207 19.454 C 87.312 19.519,87.398 19.772,87.398 20.017 C 87.398 20.261,87.528 20.568,87.686 20.700 C 87.844 20.831,87.973 21.181,87.973 21.478 C 87.973 21.775,88.059 22.072,88.165 22.137 C 88.270 22.202,88.356 22.466,88.356 22.723 C 88.356 22.981,88.443 23.191,88.548 23.191 C 88.654 23.191,88.740 23.493,88.740 23.862 C 88.740 24.231,88.826 24.533,88.931 24.533 C 89.037 24.533,89.123 24.792,89.123 25.108 C 89.123 25.491,89.219 25.683,89.411 25.683 C 89.611 25.683,89.698 25.885,89.698 26.354 C 89.698 26.723,89.784 27.024,89.890 27.024 C 89.995 27.024,90.081 27.326,90.081 27.695 C 90.081 28.064,90.168 28.366,90.273 28.366 C 90.379 28.366,90.465 28.668,90.465 29.037 C 90.465 29.505,90.551 29.708,90.752 29.708 C 90.953 29.708,91.040 29.910,91.040 30.379 C 91.040 30.747,91.126 31.049,91.231 31.049 C 91.337 31.049,91.423 31.351,91.423 31.720 C 91.423 32.089,91.509 32.391,91.615 32.391 C 91.720 32.391,91.806 32.693,91.806 33.062 C 91.806 33.530,91.893 33.733,92.094 33.733 C 92.295 33.733,92.381 33.935,92.381 34.403 C 92.381 34.772,92.468 35.074,92.573 35.074 C 92.678 35.074,92.765 35.328,92.765 35.638 C 92.765 35.948,92.851 36.255,92.956 36.320 C 93.062 36.385,93.148 36.692,93.148 37.002 C 93.148 37.312,93.234 37.566,93.340 37.566 C 93.445 37.566,93.531 37.827,93.531 38.147 C 93.531 38.487,93.651 38.774,93.819 38.838 C 93.996 38.906,94.106 39.198,94.106 39.599 C 94.106 39.957,94.193 40.249,94.298 40.249 C 94.403 40.249,94.490 40.551,94.490 40.920 C 94.490 41.289,94.576 41.591,94.681 41.591 C 94.787 41.591,94.873 41.852,94.873 42.172 C 94.873 42.511,94.992 42.799,95.161 42.863 C 95.338 42.931,95.448 43.223,95.448 43.624 C 95.448 43.981,95.534 44.274,95.640 44.274 C 95.745 44.274,95.831 44.576,95.831 44.945 C 95.831 45.314,95.745 45.616,95.640 45.616 C 95.534 45.616,95.448 45.908,95.448 46.266 C 95.448 46.667,95.338 46.959,95.161 47.027 C 94.992 47.091,94.873 47.378,94.873 47.718 C 94.873 48.038,94.787 48.299,94.681 48.299 C 94.576 48.299,94.490 48.601,94.490 48.970 C 94.490 49.339,94.403 49.641,94.298 49.641 C 94.193 49.641,94.106 49.933,94.106 50.291 C 94.106 50.692,93.996 50.984,93.819 51.052 C 93.661 51.112,93.531 51.375,93.531 51.636 C 93.531 51.896,93.445 52.163,93.340 52.228 C 93.234 52.293,93.148 52.600,93.148 52.910 C 93.148 53.220,93.062 53.474,92.956 53.474 C 92.851 53.474,92.765 53.776,92.765 54.145 C 92.765 54.514,92.678 54.816,92.573 54.816 C 92.468 54.816,92.381 55.117,92.381 55.486 C 92.381 55.955,92.295 56.157,92.094 56.157 C 91.904 56.157,91.806 56.348,91.806 56.721 C 91.806 57.031,91.720 57.338,91.615 57.403 C 91.509 57.468,91.423 57.727,91.423 57.978 C 91.423 58.229,91.337 58.488,91.231 58.553 C 91.126 58.618,91.040 58.888,91.040 59.153 C 91.040 59.418,90.910 59.764,90.752 59.922 C 90.594 60.080,90.465 60.419,90.465 60.675 C 90.465 60.931,90.379 61.140,90.273 61.140 C 90.168 61.140,90.081 61.394,90.081 61.704 C 90.081 62.014,89.995 62.321,89.890 62.386 C 89.784 62.451,89.698 62.758,89.698 63.068 C 89.698 63.378,89.616 63.632,89.515 63.632 C 89.415 63.632,89.275 63.935,89.206 64.305 C 89.136 64.675,89.003 65.025,88.910 65.083 C 88.816 65.141,88.740 65.442,88.740 65.752 C 88.740 66.062,88.654 66.315,88.548 66.315 C 88.443 66.315,88.356 66.617,88.356 66.986 C 88.356 67.355,88.270 67.657,88.165 67.657 C 88.059 67.657,87.973 67.959,87.973 68.328 C 87.973 68.796,87.886 68.999,87.686 68.999 C 87.485 68.999,87.398 69.201,87.398 69.669 C 87.398 70.038,87.312 70.340,87.207 70.340 C 87.101 70.340,87.015 70.642,87.015 71.011 C 87.015 71.380,86.929 71.682,86.823 71.682 C 86.718 71.682,86.632 71.943,86.632 72.263 C 86.632 72.602,86.512 72.890,86.344 72.954 C 86.180 73.017,86.057 73.303,86.057 73.619 C 86.057 73.924,85.970 74.173,85.865 74.173 C 85.759 74.173,85.673 74.384,85.673 74.641 C 85.673 74.899,85.587 75.162,85.482 75.228 C 85.376 75.293,85.290 75.600,85.290 75.910 C 85.290 76.220,85.208 76.473,85.107 76.473 C 85.006 76.473,84.867 76.776,84.798 77.146 C 84.728 77.516,84.595 77.867,84.502 77.924 C 84.408 77.982,84.332 78.283,84.332 78.593 C 84.332 78.903,84.245 79.157,84.140 79.157 C 84.034 79.157,83.948 79.459,83.948 79.828 C 83.948 80.196,83.862 80.498,83.757 80.498 C 83.651 80.498,83.565 80.800,83.565 81.169 C 83.565 81.638,83.478 81.840,83.277 81.840 C 83.087 81.840,82.990 82.030,82.990 82.404 C 82.990 82.714,82.904 83.021,82.798 83.086 C 82.693 83.151,82.607 83.458,82.607 83.768 C 82.607 84.078,82.520 84.332,82.415 84.332 C 82.310 84.332,82.223 84.624,82.223 84.982 C 82.223 85.383,82.113 85.674,81.936 85.743 C 81.768 85.807,81.648 86.094,81.648 86.434 L 81.648 87.015 88.069 87.015 C 93.649 87.015,94.490 86.977,94.490 86.727 C 94.490 86.569,94.576 86.440,94.681 86.440 C 94.787 86.440,94.873 86.175,94.873 85.851 C 94.873 85.527,95.002 85.133,95.161 84.975 C 95.319 84.817,95.448 84.483,95.448 84.233 C 95.448 83.984,95.534 83.726,95.640 83.661 C 95.745 83.596,95.831 83.246,95.831 82.883 C 95.831 82.520,95.918 82.223,96.023 82.223 C 96.128 82.223,96.215 81.975,96.215 81.672 C 96.215 81.368,96.344 81.013,96.502 80.882 C 96.660 80.750,96.790 80.395,96.790 80.092 C 96.790 79.788,96.876 79.540,96.981 79.540 C 97.087 79.540,97.173 79.238,97.173 78.869 C 97.173 78.500,97.259 78.198,97.365 78.198 C 97.470 78.198,97.556 77.897,97.556 77.528 C 97.556 77.159,97.643 76.857,97.748 76.857 C 97.853 76.857,97.940 76.555,97.940 76.186 C 97.940 75.717,98.026 75.515,98.227 75.515 C 98.428 75.515,98.515 75.313,98.515 74.844 C 98.515 74.475,98.601 74.173,98.706 74.173 C 98.812 74.173,98.898 73.872,98.898 73.503 C 98.898 73.134,98.984 72.832,99.090 72.832 C 99.195 72.832,99.281 72.570,99.281 72.251 C 99.281 71.911,99.401 71.624,99.569 71.559 C 99.731 71.497,99.856 71.212,99.856 70.906 C 99.856 70.607,99.943 70.310,100.048 70.244 C 100.153 70.179,100.240 69.872,100.240 69.562 C 100.240 69.252,100.326 68.999,100.431 68.999 C 100.537 68.999,100.623 68.697,100.623 68.328 C 100.623 67.959,100.709 67.657,100.815 67.657 C 100.920 67.657,101.006 67.355,101.006 66.986 C 101.006 66.518,101.093 66.315,101.294 66.315 C 101.495 66.315,101.581 66.113,101.581 65.644 C 101.581 65.276,101.667 64.974,101.773 64.974 C 101.878 64.974,101.965 64.672,101.965 64.303 C 101.965 63.934,102.051 63.632,102.156 63.632 C 102.262 63.632,102.348 63.339,102.348 62.982 C 102.348 62.580,102.458 62.289,102.635 62.221 C 102.803 62.157,102.923 61.869,102.923 61.530 C 102.923 61.210,103.009 60.949,103.115 60.949 C 103.220 60.949,103.306 60.647,103.306 60.278 C 103.306 59.909,103.392 59.607,103.498 59.607 C 103.603 59.607,103.690 59.342,103.690 59.018 C 103.690 58.695,103.819 58.300,103.977 58.142 C 104.135 57.984,104.264 57.682,104.264 57.471 C 104.264 57.051,104.723 56.488,104.912 56.677 C 104.978 56.743,105.031 57.035,105.031 57.328 C 105.031 57.620,105.110 57.908,105.206 57.968 C 105.302 58.027,105.439 58.420,105.510 58.841 C 105.582 59.263,105.718 59.607,105.815 59.607 C 105.911 59.607,105.989 59.909,105.989 60.278 C 105.989 60.647,106.076 60.949,106.181 60.949 C 106.287 60.949,106.373 61.251,106.373 61.620 C 106.373 61.989,106.459 62.290,106.564 62.290 C 106.670 62.290,106.756 62.552,106.756 62.871 C 106.756 63.211,106.876 63.498,107.044 63.563 C 107.221 63.631,107.331 63.922,107.331 64.323 C 107.331 64.681,107.417 64.974,107.523 64.974 C 107.628 64.974,107.714 65.276,107.714 65.644 C 107.714 66.013,107.801 66.315,107.906 66.315 C 108.011 66.315,108.098 66.577,108.098 66.896 C 108.098 67.236,108.217 67.523,108.385 67.588 C 108.563 67.656,108.673 67.947,108.673 68.348 C 108.673 68.706,108.759 68.999,108.864 68.999 C 108.970 68.999,109.056 69.300,109.056 69.669 C 109.056 70.038,109.142 70.340,109.248 70.340 C 109.353 70.340,109.439 70.594,109.439 70.904 C 109.439 71.214,109.526 71.521,109.631 71.586 C 109.736 71.651,109.823 71.918,109.823 72.178 C 109.823 72.439,109.952 72.702,110.110 72.763 C 110.286 72.830,110.398 73.121,110.398 73.512 C 110.398 73.863,110.484 74.204,110.589 74.269 C 110.695 74.334,110.781 74.679,110.781 75.036 C 110.781 75.392,110.867 75.737,110.973 75.803 C 111.078 75.868,111.164 76.125,111.164 76.375 C 111.164 76.625,111.294 76.959,111.452 77.117 C 111.610 77.275,111.739 77.669,111.739 77.993 C 111.739 78.317,111.826 78.582,111.931 78.582 C 112.036 78.582,112.123 78.884,112.123 79.253 C 112.123 79.621,112.209 79.923,112.314 79.923 C 112.420 79.923,112.506 80.185,112.506 80.504 C 112.506 80.844,112.625 81.131,112.793 81.196 C 112.971 81.264,113.081 81.555,113.081 81.956 C 113.081 82.314,113.167 82.607,113.273 82.607 C 113.378 82.607,113.464 82.908,113.464 83.277 C 113.464 83.646,113.551 83.948,113.656 83.948 C 113.761 83.948,113.848 84.250,113.848 84.619 C 113.848 84.988,113.934 85.290,114.039 85.290 C 114.145 85.290,114.231 85.492,114.231 85.740 C 114.231 87.017,114.218 87.015,121.872 87.015 L 128.797 87.015 128.797 86.152 C 128.797 85.678,128.711 85.290,128.606 85.290 C 128.500 85.290,128.414 84.988,128.414 84.619 C 128.414 84.250,128.328 83.948,128.222 83.948 C 128.117 83.948,128.031 83.687,128.031 83.367 C 128.031 83.028,127.911 82.740,127.743 82.676 C 127.581 82.614,127.456 82.328,127.456 82.022 C 127.456 81.724,127.369 81.426,127.264 81.361 C 127.159 81.296,127.072 81.074,127.072 80.868 C 127.072 80.662,126.997 80.343,126.904 80.160 C 126.653 79.664,126.306 78.500,126.306 78.157 C 126.306 77.992,126.176 77.806,126.018 77.746 C 125.850 77.681,125.731 77.394,125.731 77.054 C 125.731 76.735,125.644 76.473,125.539 76.473 C 125.434 76.473,125.347 76.172,125.347 75.803 C 125.347 75.434,125.261 75.132,125.156 75.132 C 125.050 75.132,124.964 74.870,124.964 74.551 C 124.964 74.211,124.845 73.924,124.677 73.859 C 124.499 73.791,124.389 73.500,124.389 73.099 C 124.389 72.741,124.303 72.448,124.197 72.448 C 124.092 72.448,124.006 72.147,124.006 71.778 C 124.006 71.409,123.920 71.107,123.814 71.107 C 123.709 71.107,123.622 70.845,123.622 70.526 C 123.622 70.186,123.503 69.899,123.335 69.835 C 123.171 69.772,123.047 69.486,123.047 69.170 C 123.047 68.865,122.961 68.615,122.856 68.615 C 122.750 68.615,122.664 68.313,122.664 67.944 C 122.664 67.575,122.578 67.274,122.472 67.274 C 122.367 67.274,122.281 67.020,122.281 66.710 C 122.281 66.400,122.204 66.099,122.111 66.041 C 122.017 65.983,121.884 65.633,121.815 65.263 C 121.745 64.893,121.606 64.590,121.505 64.590 C 121.405 64.590,121.322 64.337,121.322 64.027 C 121.322 63.717,121.236 63.410,121.131 63.345 C 121.025 63.279,120.939 63.021,120.939 62.770 C 120.939 62.518,120.853 62.260,120.747 62.195 C 120.642 62.129,120.556 61.876,120.556 61.632 C 120.556 61.387,120.426 61.080,120.268 60.949 C 120.110 60.818,119.981 60.505,119.981 60.254 C 119.981 60.004,119.895 59.799,119.789 59.799 C 119.684 59.799,119.598 59.497,119.598 59.128 C 119.598 58.759,119.511 58.457,119.406 58.457 C 119.300 58.457,119.214 58.155,119.214 57.786 C 119.214 57.318,119.127 57.115,118.927 57.115 C 118.726 57.115,118.639 56.913,118.639 56.445 C 118.639 56.076,118.553 55.774,118.448 55.774 C 118.342 55.774,118.256 55.472,118.256 55.103 C 118.256 54.734,118.170 54.432,118.064 54.432 C 117.959 54.432,117.873 54.130,117.873 53.761 C 117.873 53.392,117.786 53.091,117.681 53.091 C 117.575 53.091,117.489 52.881,117.489 52.625 C 117.489 52.369,117.360 52.030,117.202 51.872 C 117.044 51.714,116.914 51.320,116.914 50.996 C 116.914 50.672,116.828 50.407,116.723 50.407 C 116.617 50.407,116.531 50.149,116.531 49.832 C 116.531 49.516,116.445 49.257,116.339 49.257 C 116.234 49.257,116.148 48.996,116.148 48.676 C 116.148 48.337,116.028 48.049,115.860 47.985 C 115.683 47.917,115.573 47.626,115.573 47.224 C 115.573 46.867,115.486 46.574,115.381 46.574 C 115.276 46.574,115.189 46.357,115.189 46.092 C 115.189 45.827,115.082 45.439,114.952 45.230 C 114.762 44.927,114.762 44.771,114.952 44.468 C 115.082 44.259,115.189 43.919,115.189 43.713 C 115.189 43.507,115.276 43.285,115.381 43.220 C 115.486 43.155,115.573 42.885,115.573 42.620 C 115.573 42.355,115.702 42.009,115.860 41.851 C 116.018 41.693,116.148 41.359,116.148 41.109 C 116.148 40.859,116.234 40.602,116.339 40.537 C 116.445 40.472,116.531 40.165,116.531 39.855 C 116.531 39.545,116.617 39.291,116.723 39.291 C 116.828 39.291,116.914 39.032,116.914 38.716 C 116.914 38.400,116.997 38.141,117.097 38.141 C 117.198 38.141,117.337 37.838,117.406 37.468 C 117.476 37.098,117.609 36.748,117.703 36.690 C 117.796 36.632,117.873 36.331,117.873 36.021 C 117.873 35.711,117.959 35.458,118.064 35.458 C 118.170 35.458,118.256 35.156,118.256 34.787 C 118.256 34.418,118.342 34.116,118.448 34.116 C 118.553 34.116,118.639 33.814,118.639 33.445 C 118.639 32.977,118.726 32.774,118.927 32.774 C 119.127 32.774,119.214 32.572,119.214 32.103 C 119.214 31.735,119.300 31.433,119.406 31.433 C 119.511 31.433,119.598 31.131,119.598 30.762 C 119.598 30.393,119.684 30.091,119.789 30.091 C 119.895 30.091,119.981 29.830,119.981 29.510 C 119.981 29.170,120.100 28.883,120.268 28.819 C 120.430 28.757,120.556 28.471,120.556 28.165 C 120.556 27.866,120.642 27.569,120.747 27.504 C 120.853 27.438,120.939 27.131,120.939 26.821 C 120.939 26.511,121.025 26.258,121.131 26.258 C 121.236 26.258,121.322 25.965,121.322 25.607 C 121.322 25.206,121.433 24.915,121.610 24.847 C 121.778 24.782,121.897 24.495,121.897 24.156 C 121.897 23.836,121.984 23.575,122.089 23.575 C 122.195 23.575,122.281 23.273,122.281 22.904 C 122.281 22.535,122.367 22.233,122.472 22.233 C 122.578 22.233,122.664 21.931,122.664 21.562 C 122.664 21.193,122.750 20.891,122.856 20.891 C 122.961 20.891,123.047 20.589,123.047 20.220 C 123.047 19.752,123.134 19.550,123.335 19.550 C 123.525 19.550,123.622 19.359,123.622 18.986 C 123.622 18.676,123.709 18.369,123.814 18.304 C 123.920 18.239,124.006 17.932,124.006 17.622 C 124.006 17.312,124.092 17.058,124.197 17.058 C 124.303 17.058,124.389 16.836,124.389 16.565 C 124.389 16.294,124.518 15.943,124.677 15.785 C 124.835 15.627,124.964 15.293,124.964 15.043 C 124.964 14.793,125.050 14.536,125.156 14.471 C 125.261 14.405,125.347 14.147,125.347 13.896 C 125.347 13.644,125.434 13.386,125.539 13.321 C 125.644 13.255,125.731 12.985,125.731 12.721 C 125.731 12.456,125.860 12.110,126.018 11.952 C 126.176 11.793,126.306 11.460,126.306 11.210 C 126.306 10.960,126.392 10.702,126.497 10.637 C 126.603 10.572,126.689 10.265,126.689 9.955 C 126.689 9.645,126.775 9.391,126.881 9.391 C 126.986 9.391,127.072 9.090,127.072 8.721 C 127.072 8.352,127.159 8.050,127.264 8.050 C 127.369 8.050,127.456 7.795,127.456 7.484 C 127.456 7.170,127.589 6.844,127.757 6.750 C 127.970 6.631,128.040 6.362,127.996 5.831 L 127.935 5.079 121.610 5.079 L 115.285 5.079 115.225 5.702 C 115.192 6.045,115.084 6.325,114.985 6.325 C 114.887 6.325,114.806 6.590,114.806 6.914 C 114.806 7.237,114.677 7.632,114.518 7.790 C 114.360 7.948,114.231 8.287,114.231 8.543 C 114.231 8.799,114.145 9.008,114.039 9.008 C 113.934 9.008,113.848 9.310,113.848 9.679 C 113.848 10.048,113.761 10.350,113.656 10.350 C 113.551 10.350,113.464 10.652,113.464 11.021 C 113.464 11.390,113.378 11.691,113.273 11.691 C 113.167 11.691,113.081 11.993,113.081 12.362 C 113.081 12.831,112.994 13.033,112.793 13.033 C 112.593 13.033,112.506 13.235,112.506 13.704 C 112.506 14.073,112.420 14.375,112.314 14.375 C 112.209 14.375,112.123 14.677,112.123 15.046 C 112.123 15.414,112.036 15.716,111.931 15.716 C 111.826 15.716,111.739 16.009,111.739 16.367 C 111.739 16.768,111.629 17.059,111.452 17.127 C 111.284 17.192,111.164 17.479,111.164 17.819 C 111.164 18.138,111.078 18.400,110.973 18.400 C 110.867 18.400,110.781 18.653,110.781 18.963 C 110.781 19.273,110.695 19.580,110.589 19.645 C 110.484 19.711,110.398 20.018,110.398 20.328 C 110.398 20.638,110.315 20.891,110.215 20.891 C 110.114 20.891,109.975 21.194,109.906 21.564 C 109.836 21.934,109.703 22.284,109.609 22.342 C 109.516 22.400,109.439 22.701,109.439 23.011 C 109.439 23.321,109.353 23.575,109.248 23.575 C 109.142 23.575,109.056 23.876,109.056 24.245 C 109.056 24.614,108.970 24.916,108.864 24.916 C 108.759 24.916,108.673 25.181,108.673 25.505 C 108.673 25.829,108.543 26.223,108.385 26.381 C 108.227 26.539,108.098 26.873,108.098 27.123 C 108.098 27.372,108.011 27.630,107.906 27.695 C 107.801 27.760,107.714 28.062,107.714 28.366 C 107.714 28.670,107.628 28.972,107.523 29.037 C 107.417 29.102,107.331 29.372,107.331 29.637 C 107.331 29.902,107.202 30.248,107.044 30.406 C 106.885 30.564,106.756 30.929,106.756 31.216 C 106.756 31.504,106.676 31.821,106.579 31.921 C 106.482 32.022,106.374 32.362,106.340 32.678 C 106.238 33.607,105.414 33.619,105.414 32.692 C 105.414 32.316,105.328 32.008,105.223 32.008 C 105.117 32.008,105.031 31.711,105.031 31.348 C 105.031 30.985,104.954 30.641,104.861 30.583 C 104.767 30.525,104.646 30.197,104.591 29.853 C 104.407 28.694,104.094 27.702,103.891 27.635 C 103.780 27.598,103.690 27.273,103.690 26.913 C 103.690 26.552,103.603 26.258,103.498 26.258 C 103.392 26.258,103.306 25.956,103.306 25.587 C 103.306 25.218,103.220 24.916,103.115 24.916 C 103.009 24.916,102.923 24.655,102.923 24.335 C 102.923 23.996,102.803 23.708,102.635 23.644 C 102.458 23.576,102.348 23.284,102.348 22.883 C 102.348 22.526,102.262 22.233,102.156 22.233 C 102.051 22.233,101.965 21.931,101.965 21.562 C 101.965 21.193,101.878 20.891,101.773 20.891 C 101.667 20.891,101.581 20.589,101.581 20.220 C 101.581 19.752,101.495 19.550,101.294 19.550 C 101.094 19.550,101.006 19.349,101.006 18.890 C 101.006 18.527,100.920 18.177,100.815 18.112 C 100.709 18.047,100.623 17.697,100.623 17.334 C 100.623 16.971,100.537 16.675,100.431 16.675 C 100.326 16.675,100.240 16.373,100.240 16.004 C 100.240 15.635,100.153 15.333,100.048 15.333 C 99.943 15.333,99.856 15.124,99.856 14.868 C 99.856 14.612,99.727 14.273,99.569 14.115 C 99.411 13.956,99.281 13.562,99.281 13.238 C 99.281 12.915,99.195 12.650,99.090 12.650 C 98.984 12.650,98.898 12.348,98.898 11.979 C 98.898 11.610,98.812 11.308,98.706 11.308 C 98.601 11.308,98.515 11.006,98.515 10.637 C 98.515 10.169,98.428 9.966,98.227 9.966 C 98.026 9.966,97.940 9.764,97.940 9.296 C 97.940 8.927,97.853 8.625,97.748 8.625 C 97.643 8.625,97.556 8.323,97.556 7.954 C 97.556 7.585,97.470 7.283,97.365 7.283 C 97.259 7.283,97.173 6.981,97.173 6.612 C 97.173 6.243,97.093 5.942,96.995 5.942 C 96.897 5.942,96.789 5.747,96.755 5.510 L 96.694 5.079 89.780 5.029 C 85.978 5.001,82.808 5.037,82.737 5.109 M134.677 5.109 C 134.606 5.180,134.547 23.638,134.547 46.127 L 134.547 87.015 141.352 87.015 L 148.156 87.015 148.108 46.047 L 148.059 5.079 141.434 5.029 C 137.789 5.001,134.749 5.037,134.677 5.109 M210.190 50.727 C 209.974 50.942,210.038 92.344,210.254 92.477 C 210.381 92.556,210.446 85.547,210.446 71.597 C 210.446 60.048,210.417 50.599,210.382 50.599 C 210.347 50.599,210.260 50.656,210.190 50.727 M258.936 92.956 C 259.337 93.215,300.271 93.215,300.431 92.956 C 300.510 92.829,293.518 92.766,279.599 92.768 C 266.002 92.770,258.750 92.836,258.936 92.956 M210.190 98.834 C 209.974 99.050,210.038 140.259,210.254 140.393 C 210.381 140.472,210.446 133.495,210.446 119.609 C 210.446 108.112,210.417 98.706,210.382 98.706 C 210.347 98.706,210.260 98.764,210.190 98.834 M170.771 100.431 C 170.771 100.541,170.196 100.623,169.430 100.623 C 168.365 100.623,168.088 100.682,168.088 100.910 C 168.088 101.123,167.865 101.198,167.226 101.198 C 166.751 101.198,166.363 101.284,166.363 101.390 C 166.363 101.495,166.148 101.581,165.884 101.581 C 165.621 101.581,165.405 101.667,165.405 101.773 C 165.405 101.878,165.157 101.965,164.853 101.965 C 164.550 101.965,164.194 102.094,164.063 102.252 C 163.932 102.410,163.706 102.540,163.561 102.540 C 163.415 102.540,163.297 102.626,163.297 102.731 C 163.297 102.837,163.167 102.923,163.009 102.923 C 162.851 102.923,162.722 103.009,162.722 103.115 C 162.722 103.220,162.588 103.306,162.424 103.306 C 162.105 103.306,158.888 106.449,158.888 106.761 C 158.888 106.864,158.759 106.948,158.601 106.948 C 158.443 106.948,158.313 107.081,158.313 107.243 C 158.313 107.406,158.141 107.724,157.930 107.950 C 157.719 108.177,157.547 108.509,157.547 108.688 C 157.547 108.868,157.417 109.065,157.259 109.125 C 157.101 109.186,156.972 109.411,156.972 109.625 C 156.972 109.839,156.885 110.014,156.780 110.014 C 156.675 110.014,156.588 110.268,156.588 110.578 C 156.588 110.888,156.502 111.195,156.397 111.260 C 156.291 111.325,156.205 111.675,156.205 112.038 C 156.205 112.401,156.119 112.698,156.013 112.698 C 155.908 112.698,155.822 113.049,155.822 113.478 C 155.822 113.916,155.696 114.384,155.534 114.546 C 155.334 114.746,155.247 115.236,155.247 116.161 C 155.247 116.919,155.164 117.489,155.055 117.489 C 154.935 117.489,154.863 118.731,154.863 120.832 C 154.863 122.854,154.939 124.222,155.055 124.293 C 155.161 124.358,155.247 125.010,155.247 125.742 C 155.247 126.797,155.306 127.072,155.534 127.072 C 155.747 127.072,155.822 127.296,155.822 127.935 C 155.822 128.409,155.908 128.797,156.013 128.797 C 156.119 128.797,156.205 129.185,156.205 129.660 C 156.205 130.134,156.291 130.522,156.397 130.522 C 156.502 130.522,156.588 130.738,156.588 131.001 C 156.588 131.265,156.675 131.481,156.780 131.481 C 156.885 131.481,156.972 131.690,156.972 131.946 C 156.972 132.202,157.101 132.541,157.259 132.699 C 157.417 132.857,157.547 133.117,157.547 133.276 C 157.547 133.436,157.633 133.620,157.738 133.685 C 157.844 133.750,157.930 133.939,157.930 134.105 C 157.930 134.271,158.146 134.607,158.409 134.851 C 158.673 135.096,158.888 135.429,158.888 135.592 C 158.888 135.755,158.975 135.889,159.080 135.889 C 159.185 135.889,159.274 136.040,159.278 136.224 C 159.284 136.583,159.704 137.230,159.929 137.230 C 160.178 137.230,160.613 137.773,160.613 138.082 C 160.613 138.249,161.001 138.786,161.476 139.274 C 161.950 139.762,162.338 140.245,162.338 140.348 C 162.338 140.451,162.726 140.907,163.201 141.361 C 163.675 141.816,164.063 142.280,164.063 142.392 C 164.063 142.505,164.148 142.597,164.252 142.597 C 164.356 142.597,165.210 143.373,166.151 144.322 C 167.092 145.271,167.955 146.047,168.070 146.047 C 168.185 146.047,169.051 146.823,169.994 147.772 C 170.938 148.721,171.800 149.497,171.911 149.497 C 172.022 149.497,172.113 149.584,172.113 149.690 C 172.113 149.796,172.889 150.667,173.838 151.626 C 174.787 152.585,175.563 153.490,175.563 153.637 C 175.563 153.785,175.649 153.905,175.755 153.905 C 175.860 153.905,175.946 154.034,175.946 154.193 C 175.946 154.351,176.039 154.480,176.152 154.480 C 176.490 154.480,176.905 155.000,176.905 155.425 C 176.905 155.643,176.991 155.822,177.096 155.822 C 177.202 155.822,177.288 155.963,177.288 156.135 C 177.288 156.308,177.504 156.648,177.767 156.893 C 178.037 157.142,178.246 157.550,178.246 157.825 C 178.246 158.094,178.333 158.313,178.438 158.313 C 178.543 158.313,178.630 158.529,178.630 158.793 C 178.630 159.056,178.716 159.272,178.821 159.272 C 178.927 159.272,179.013 159.564,179.013 159.922 C 179.013 160.323,179.123 160.615,179.300 160.683 C 179.515 160.765,179.588 161.109,179.588 162.045 C 179.588 162.752,179.671 163.297,179.780 163.297 C 179.889 163.297,179.971 163.872,179.971 164.638 C 179.971 165.405,179.889 165.980,179.780 165.980 C 179.674 165.980,179.588 166.368,179.588 166.842 C 179.588 167.481,179.513 167.705,179.300 167.705 C 179.108 167.705,179.013 167.897,179.013 168.282 C 179.013 168.910,177.362 170.771,176.806 170.771 C 176.650 170.771,176.521 170.858,176.521 170.963 C 176.521 171.069,176.219 171.155,175.851 171.155 C 175.482 171.155,175.180 171.241,175.180 171.346 C 175.180 171.459,174.509 171.538,173.551 171.538 C 172.592 171.538,171.921 171.459,171.921 171.346 C 171.921 171.241,171.663 171.155,171.346 171.155 C 171.030 171.155,170.771 171.069,170.771 170.963 C 170.771 170.858,170.593 170.771,170.374 170.771 C 169.950 170.771,169.430 170.357,169.430 170.018 C 169.430 169.906,169.300 169.813,169.142 169.813 C 168.983 169.813,168.855 169.643,168.855 169.430 C 168.855 169.219,168.769 169.046,168.663 169.046 C 168.558 169.046,168.471 168.879,168.471 168.674 C 168.471 168.470,168.385 168.249,168.280 168.184 C 168.174 168.119,168.088 167.872,168.088 167.636 C 168.088 167.400,168.004 167.122,167.900 167.019 C 167.791 166.910,167.691 164.976,167.661 162.428 L 167.609 158.026 161.045 157.975 L 154.480 157.925 154.480 161.857 C 154.480 164.350,154.550 165.788,154.672 165.788 C 154.786 165.788,154.863 166.523,154.863 167.609 C 154.863 168.695,154.941 169.430,155.055 169.430 C 155.161 169.430,155.247 169.818,155.247 170.292 C 155.247 170.931,155.321 171.155,155.534 171.155 C 155.747 171.155,155.822 171.378,155.822 172.017 C 155.822 172.492,155.908 172.880,156.013 172.880 C 156.119 172.880,156.205 173.095,156.205 173.359 C 156.205 173.622,156.291 173.838,156.397 173.838 C 156.502 173.838,156.588 174.040,156.588 174.288 C 156.588 174.823,157.117 175.946,157.369 175.946 C 157.467 175.946,157.547 176.076,157.547 176.234 C 157.547 176.392,157.633 176.521,157.738 176.521 C 157.844 176.521,157.930 176.662,157.930 176.834 C 157.930 177.006,158.232 177.432,158.601 177.780 C 158.970 178.128,159.272 178.512,159.272 178.634 C 159.272 178.869,160.026 179.571,160.291 179.582 C 160.377 179.585,160.820 179.976,161.274 180.450 C 161.729 180.925,162.240 181.313,162.411 181.313 C 162.582 181.313,162.722 181.399,162.722 181.505 C 162.722 181.610,162.937 181.696,163.201 181.696 C 163.499 181.696,163.680 181.805,163.680 181.984 C 163.680 182.163,163.861 182.271,164.159 182.271 C 164.423 182.271,164.638 182.357,164.638 182.463 C 164.638 182.568,164.811 182.655,165.022 182.655 C 165.232 182.655,165.405 182.741,165.405 182.846 C 165.405 182.952,165.793 183.038,166.267 183.038 C 166.742 183.038,167.130 183.124,167.130 183.230 C 167.130 183.335,167.521 183.421,167.998 183.421 C 168.594 183.421,168.902 183.512,168.977 183.709 C 169.071 183.954,169.816 183.996,174.050 183.996 C 178.334 183.996,179.013 183.957,179.013 183.709 C 179.013 183.491,179.247 183.421,179.971 183.421 C 180.498 183.421,180.930 183.335,180.930 183.230 C 180.930 183.124,181.269 183.038,181.685 183.038 C 182.100 183.038,182.494 182.952,182.559 182.846 C 182.624 182.741,182.845 182.655,183.049 182.655 C 183.254 182.655,183.421 182.568,183.421 182.463 C 183.421 182.357,183.596 182.271,183.811 182.271 C 184.025 182.271,184.250 182.142,184.310 181.984 C 184.371 181.826,184.627 181.696,184.879 181.696 C 185.131 181.696,185.338 181.610,185.338 181.505 C 185.338 181.399,185.473 181.313,185.639 181.313 C 185.983 181.313,186.488 180.865,186.488 180.560 C 186.488 180.447,186.578 180.355,186.688 180.355 C 186.798 180.355,187.089 180.161,187.335 179.923 C 187.580 179.686,188.008 179.329,188.284 179.130 C 188.561 178.931,188.788 178.669,188.788 178.549 C 188.788 178.429,188.960 178.207,189.171 178.055 C 189.382 177.903,189.554 177.668,189.554 177.533 C 189.554 177.398,189.684 177.288,189.842 177.288 C 190.002 177.288,190.129 177.118,190.129 176.905 C 190.129 176.694,190.216 176.521,190.321 176.521 C 190.426 176.521,190.513 176.392,190.513 176.234 C 190.513 176.076,190.599 175.946,190.704 175.946 C 190.810 175.946,190.896 175.811,190.896 175.645 C 190.896 175.479,191.025 175.215,191.184 175.056 C 191.342 174.898,191.471 174.560,191.471 174.304 C 191.471 174.048,191.557 173.838,191.663 173.838 C 191.768 173.838,191.854 173.622,191.854 173.359 C 191.854 173.095,191.941 172.880,192.046 172.880 C 192.151 172.880,192.238 172.615,192.238 172.291 C 192.238 171.967,192.367 171.573,192.525 171.415 C 192.694 171.246,192.813 170.778,192.813 170.279 C 192.813 169.812,192.899 169.430,193.004 169.430 C 193.116 169.430,193.196 168.795,193.196 167.908 C 193.196 167.071,193.282 166.333,193.388 166.267 C 193.639 166.112,193.639 162.206,193.388 162.051 C 193.282 161.986,193.196 161.166,193.196 160.230 C 193.196 159.294,193.110 158.474,193.004 158.409 C 192.899 158.344,192.813 157.862,192.813 157.338 C 192.813 156.667,192.727 156.352,192.525 156.274 C 192.330 156.199,192.238 155.894,192.238 155.322 C 192.238 154.859,192.151 154.480,192.046 154.480 C 191.941 154.480,191.854 154.178,191.854 153.809 C 191.854 153.440,191.768 153.138,191.663 153.138 C 191.557 153.138,191.471 152.963,191.471 152.749 C 191.471 152.535,191.342 152.310,191.184 152.249 C 191.025 152.189,190.896 151.976,190.896 151.776 C 190.896 151.577,190.810 151.414,190.704 151.414 C 190.599 151.414,190.513 151.198,190.513 150.934 C 190.513 150.671,190.426 150.455,190.321 150.455 C 190.216 150.455,190.129 150.280,190.129 150.066 C 190.129 149.852,190.000 149.627,189.842 149.566 C 189.684 149.506,189.554 149.312,189.554 149.135 C 189.554 148.959,189.382 148.691,189.171 148.539 C 188.960 148.387,188.788 148.103,188.788 147.908 C 188.788 147.519,188.359 147.005,188.035 147.005 C 187.922 147.005,187.829 146.831,187.829 146.619 C 187.829 146.407,187.441 145.834,186.967 145.345 C 186.493 144.857,186.104 144.376,186.104 144.277 C 186.104 144.177,185.328 143.325,184.379 142.385 C 183.431 141.444,182.655 140.590,182.655 140.486 C 182.655 140.382,182.565 140.297,182.454 140.297 C 182.344 140.297,181.791 139.823,181.225 139.243 C 180.659 138.663,180.102 138.189,179.987 138.189 C 179.872 138.189,179.395 137.801,178.927 137.326 C 178.459 136.852,177.986 136.464,177.874 136.464 C 177.763 136.464,177.671 136.375,177.671 136.265 C 177.671 136.007,173.720 132.056,173.461 132.056 C 173.352 132.056,173.263 131.926,173.263 131.768 C 173.263 131.610,173.177 131.481,173.071 131.481 C 172.966 131.481,172.880 131.393,172.880 131.286 C 172.880 130.944,172.026 129.760,171.778 129.758 C 171.646 129.757,171.538 129.599,171.538 129.408 C 171.538 129.217,171.366 128.876,171.155 128.650 C 170.944 128.424,170.771 128.105,170.771 127.943 C 170.771 127.780,170.642 127.647,170.484 127.647 C 170.305 127.647,170.196 127.466,170.196 127.168 C 170.196 126.905,170.110 126.689,170.005 126.689 C 169.899 126.689,169.813 126.473,169.813 126.210 C 169.813 125.946,169.727 125.731,169.621 125.731 C 169.516 125.731,169.430 125.469,169.430 125.150 C 169.430 124.810,169.310 124.523,169.142 124.458 C 168.936 124.379,168.855 124.056,168.855 123.314 C 168.855 122.746,168.769 122.281,168.663 122.281 C 168.546 122.281,168.471 121.418,168.471 120.077 C 168.471 118.735,168.546 117.873,168.663 117.873 C 168.769 117.873,168.855 117.484,168.855 117.010 C 168.855 116.371,168.929 116.148,169.142 116.148 C 169.304 116.148,169.430 115.976,169.430 115.756 C 169.430 115.541,169.602 115.180,169.813 114.953 C 170.024 114.727,170.196 114.386,170.196 114.195 C 170.196 113.952,170.341 113.848,170.676 113.848 C 170.939 113.848,171.155 113.761,171.155 113.656 C 171.155 113.551,171.327 113.464,171.538 113.464 C 171.749 113.464,171.921 113.378,171.921 113.273 C 171.921 113.167,172.223 113.081,172.592 113.081 C 173.061 113.081,173.263 112.994,173.263 112.793 C 173.263 112.570,173.516 112.506,174.393 112.506 C 175.220 112.506,175.552 112.583,175.632 112.793 C 175.696 112.960,175.983 113.081,176.312 113.081 C 176.626 113.081,176.935 113.167,177.000 113.273 C 177.066 113.378,177.286 113.464,177.491 113.464 C 177.696 113.464,177.863 113.551,177.863 113.656 C 177.863 113.761,178.035 113.848,178.246 113.848 C 178.459 113.848,178.630 113.975,178.630 114.135 C 178.630 114.293,178.716 114.423,178.821 114.423 C 178.927 114.423,179.013 114.595,179.013 114.806 C 179.013 115.019,179.141 115.189,179.300 115.189 C 179.479 115.189,179.588 115.370,179.588 115.668 C 179.588 115.932,179.674 116.148,179.780 116.148 C 179.885 116.148,179.971 116.487,179.971 116.903 C 179.971 117.318,180.057 117.712,180.163 117.777 C 180.278 117.848,180.355 119.120,180.355 120.950 L 180.355 124.006 186.775 124.006 C 193.083 124.006,193.196 123.999,193.196 123.620 C 193.196 123.408,193.303 123.063,193.434 122.853 C 193.617 122.560,193.620 122.390,193.447 122.114 C 193.276 121.840,193.277 121.698,193.449 121.515 C 193.623 121.330,193.620 121.254,193.436 121.187 C 193.260 121.122,193.196 120.393,193.196 118.443 C 193.196 116.879,193.117 115.738,193.004 115.668 C 192.899 115.603,192.813 115.121,192.813 114.597 C 192.813 113.927,192.727 113.611,192.525 113.534 C 192.330 113.459,192.238 113.153,192.238 112.581 C 192.238 112.118,192.151 111.739,192.046 111.739 C 191.941 111.739,191.854 111.524,191.854 111.260 C 191.854 110.997,191.768 110.781,191.663 110.781 C 191.557 110.781,191.471 110.520,191.471 110.200 C 191.471 109.860,191.352 109.573,191.184 109.509 C 191.025 109.448,190.896 109.235,190.896 109.036 C 190.896 108.836,190.810 108.673,190.704 108.673 C 190.599 108.673,190.513 108.543,190.513 108.385 C 190.513 108.227,190.426 108.098,190.321 108.098 C 190.216 108.098,190.129 107.925,190.129 107.714 C 190.129 107.501,190.002 107.331,189.842 107.331 C 189.684 107.331,189.554 107.202,189.554 107.044 C 189.554 106.885,189.468 106.756,189.363 106.756 C 189.257 106.756,189.171 106.617,189.171 106.448 C 189.171 106.138,186.968 103.881,186.666 103.881 C 186.578 103.881,186.290 103.666,186.026 103.402 C 185.763 103.138,185.370 102.923,185.155 102.923 C 184.939 102.923,184.762 102.858,184.762 102.779 C 184.760 102.586,183.652 101.965,183.310 101.965 C 183.160 101.965,183.038 101.878,183.038 101.773 C 183.038 101.667,182.736 101.581,182.367 101.581 C 181.998 101.581,181.696 101.495,181.696 101.390 C 181.696 101.284,181.404 101.198,181.046 101.198 C 180.645 101.198,180.353 101.088,180.285 100.910 C 180.203 100.695,179.859 100.623,178.923 100.623 C 178.216 100.623,177.671 100.539,177.671 100.431 C 177.671 100.311,176.394 100.240,174.221 100.240 C 172.049 100.240,170.771 100.311,170.771 100.431 M22.711 101.629 C 22.654 101.866,22.631 120.259,22.660 142.501 L 22.712 182.942 40.105 182.991 L 57.499 183.040 57.499 176.906 L 57.499 170.771 46.957 170.771 L 36.416 170.771 36.416 135.985 L 36.416 101.198 29.616 101.198 L 22.815 101.198 22.711 101.629 M71.921 101.485 C 71.782 101.643,71.682 102.280,71.682 103.011 C 71.682 103.966,71.617 104.264,71.409 104.264 C 71.208 104.264,71.108 104.640,71.026 105.702 C 70.965 106.493,70.865 107.786,70.804 108.577 C 70.743 109.368,70.614 110.014,70.517 110.014 C 70.420 110.014,70.340 110.566,70.340 111.240 C 70.340 112.152,70.267 112.493,70.053 112.575 C 69.835 112.659,69.765 113.012,69.765 114.033 C 69.765 114.804,69.683 115.381,69.574 115.381 C 69.464 115.381,69.382 115.952,69.382 116.711 C 69.382 117.443,69.296 118.095,69.190 118.160 C 69.085 118.225,68.999 118.868,68.999 119.588 C 68.999 120.576,68.928 120.925,68.711 121.008 C 68.496 121.091,68.424 121.435,68.424 122.371 C 68.424 123.077,68.340 123.622,68.232 123.622 C 68.122 123.622,68.040 124.197,68.040 124.964 C 68.040 125.731,67.958 126.306,67.849 126.306 C 67.739 126.306,67.657 126.877,67.657 127.636 C 67.657 128.368,67.571 129.020,67.465 129.085 C 67.360 129.150,67.274 129.845,67.274 130.629 C 67.274 131.769,67.216 132.056,66.986 132.056 C 66.760 132.056,66.699 132.321,66.699 133.290 C 66.699 133.969,66.612 134.578,66.507 134.643 C 66.402 134.708,66.315 135.317,66.315 135.996 C 66.315 136.691,66.232 137.230,66.124 137.230 C 66.014 137.230,65.932 137.798,65.932 138.549 C 65.932 139.487,65.849 139.936,65.644 140.105 C 65.440 140.275,65.357 140.724,65.357 141.662 C 65.357 142.413,65.275 142.980,65.165 142.980 C 65.056 142.980,64.974 143.555,64.974 144.322 C 64.974 145.089,64.892 145.664,64.782 145.664 C 64.673 145.664,64.590 146.233,64.590 146.989 C 64.590 147.866,64.511 148.342,64.355 148.393 C 64.130 148.468,63.943 149.668,63.704 152.563 C 63.647 153.249,63.522 153.891,63.425 153.991 C 63.328 154.092,63.249 154.717,63.249 155.381 C 63.249 156.058,63.165 156.588,63.057 156.588 C 62.948 156.588,62.865 157.157,62.865 157.910 C 62.865 158.907,62.795 159.258,62.578 159.341 C 62.360 159.424,62.290 159.777,62.290 160.788 C 62.290 161.523,62.204 162.177,62.099 162.242 C 61.993 162.308,61.907 162.960,61.907 163.691 C 61.907 164.450,61.825 165.022,61.715 165.022 C 61.606 165.022,61.524 165.597,61.524 166.363 C 61.524 167.428,61.464 167.705,61.236 167.705 C 61.008 167.705,60.949 167.982,60.949 169.046 C 60.949 169.813,60.867 170.388,60.757 170.388 C 60.648 170.388,60.565 170.959,60.565 171.718 C 60.565 172.450,60.479 173.102,60.374 173.167 C 60.268 173.232,60.182 173.847,60.182 174.534 C 60.182 175.388,60.091 175.873,59.895 176.070 C 59.704 176.260,59.607 176.738,59.607 177.482 C 59.607 178.101,59.521 178.660,59.415 178.725 C 59.310 178.791,59.224 179.399,59.224 180.078 C 59.224 180.774,59.140 181.313,59.032 181.313 C 58.927 181.313,58.840 181.701,58.840 182.175 L 58.840 183.038 65.165 183.038 L 71.490 183.038 71.490 181.970 C 71.490 181.276,71.591 180.801,71.778 180.615 C 71.978 180.414,72.065 179.924,72.065 178.999 C 72.065 178.242,72.147 177.671,72.257 177.671 C 72.369 177.671,72.448 177.032,72.448 176.138 C 72.448 175.244,72.528 174.605,72.640 174.605 C 72.748 174.605,72.832 174.057,72.832 173.345 C 72.832 172.481,72.922 171.995,73.119 171.798 C 73.316 171.602,73.407 171.117,73.407 170.265 C 73.407 168.347,72.875 168.471,81.086 168.471 C 89.349 168.471,88.724 168.304,88.734 170.521 C 88.737 171.279,88.826 171.952,88.931 172.017 C 89.037 172.082,89.123 172.675,89.123 173.334 C 89.123 174.090,89.227 174.669,89.405 174.903 C 89.585 175.142,89.688 175.735,89.692 176.558 C 89.695 177.263,89.784 177.894,89.890 177.959 C 89.995 178.024,90.081 178.671,90.081 179.396 C 90.081 180.122,90.168 180.769,90.273 180.834 C 90.379 180.899,90.465 181.421,90.465 181.995 L 90.465 183.038 97.365 183.038 L 104.264 183.038 104.264 181.594 C 104.264 180.488,104.197 180.125,103.977 180.041 C 103.760 179.957,103.690 179.607,103.690 178.609 C 103.690 177.882,103.610 177.288,103.514 177.288 C 103.417 177.288,103.287 176.684,103.226 175.946 C 103.165 175.208,103.064 173.995,103.002 173.251 C 102.927 172.341,102.801 171.863,102.619 171.793 C 102.422 171.717,102.348 171.330,102.348 170.368 C 102.348 169.615,102.265 169.046,102.156 169.046 C 102.047 169.046,101.965 168.471,101.965 167.705 C 101.965 166.938,101.882 166.363,101.773 166.363 C 101.664 166.363,101.581 165.796,101.581 165.045 C 101.581 164.107,101.498 163.658,101.294 163.488 C 101.089 163.318,101.006 162.869,101.006 161.931 C 101.006 161.180,100.924 160.613,100.815 160.613 C 100.705 160.613,100.623 160.038,100.623 159.272 C 100.623 158.505,100.541 157.930,100.431 157.930 C 100.323 157.930,100.240 157.391,100.240 156.696 C 100.240 156.017,100.153 155.408,100.048 155.343 C 99.943 155.277,99.856 154.675,99.856 154.003 C 99.856 153.174,99.764 152.690,99.569 152.495 C 99.372 152.298,99.281 151.812,99.281 150.948 C 99.281 150.236,99.198 149.689,99.090 149.689 C 98.980 149.689,98.898 149.114,98.898 148.347 C 98.898 147.580,98.816 147.005,98.706 147.005 C 98.597 147.005,98.515 146.430,98.515 145.664 C 98.515 144.599,98.455 144.322,98.227 144.322 C 97.997 144.322,97.940 144.036,97.940 142.896 C 97.940 142.111,97.853 141.416,97.748 141.351 C 97.643 141.286,97.556 140.634,97.556 139.902 C 97.556 139.143,97.474 138.572,97.365 138.572 C 97.257 138.572,97.173 138.033,97.173 137.338 C 97.173 136.659,97.087 136.050,96.981 135.985 C 96.876 135.920,96.790 135.360,96.790 134.741 C 96.790 133.997,96.692 133.519,96.502 133.329 C 96.305 133.132,96.215 132.647,96.215 131.793 C 96.215 131.107,96.128 130.492,96.023 130.426 C 95.918 130.361,95.831 129.709,95.831 128.978 C 95.831 128.219,95.749 127.647,95.640 127.647 C 95.531 127.647,95.448 127.102,95.448 126.396 C 95.448 125.460,95.375 125.116,95.161 125.033 C 94.943 124.950,94.873 124.599,94.873 123.602 C 94.873 122.849,94.791 122.281,94.681 122.281 C 94.572 122.281,94.490 121.710,94.490 120.950 C 94.490 120.219,94.403 119.567,94.298 119.502 C 94.193 119.437,94.106 118.782,94.106 118.047 C 94.106 117.036,94.036 116.684,93.819 116.600 C 93.602 116.517,93.531 116.166,93.531 115.169 C 93.531 114.416,93.449 113.848,93.340 113.848 C 93.232 113.848,93.148 113.305,93.148 112.602 C 93.148 111.917,93.069 111.356,92.972 111.356 C 92.874 111.356,92.750 110.731,92.694 109.966 C 92.490 107.155,92.274 105.730,92.042 105.653 C 91.886 105.601,91.806 105.125,91.806 104.249 C 91.806 103.493,91.724 102.923,91.615 102.923 C 91.509 102.923,91.423 102.535,91.423 102.060 L 91.423 101.198 81.792 101.205 C 73.720 101.211,72.122 101.257,71.921 101.485 M109.439 142.118 L 109.439 183.038 122.365 183.038 C 130.776 183.038,135.333 182.971,135.410 182.846 C 135.475 182.741,135.949 182.655,136.464 182.655 C 136.978 182.655,137.453 182.568,137.518 182.463 C 137.583 182.357,137.841 182.271,138.091 182.271 C 138.340 182.271,138.674 182.142,138.832 181.984 C 138.990 181.826,139.298 181.696,139.517 181.696 C 139.735 181.696,139.914 181.610,139.914 181.505 C 139.914 181.399,140.086 181.313,140.297 181.313 C 140.508 181.313,140.680 181.227,140.680 181.121 C 140.680 181.016,140.896 180.930,141.160 180.930 C 141.458 180.930,141.639 180.821,141.639 180.642 C 141.639 180.471,141.815 180.355,142.076 180.355 C 142.316 180.355,142.637 180.182,142.789 179.971 C 142.941 179.760,143.218 179.588,143.406 179.588 C 143.594 179.588,143.747 179.459,143.747 179.300 C 143.747 179.142,143.843 179.013,143.959 179.013 C 144.229 179.013,145.817 177.304,145.963 176.857 C 146.024 176.672,146.153 176.521,146.252 176.521 C 146.350 176.521,146.430 176.429,146.430 176.316 C 146.430 176.203,146.538 175.990,146.670 175.843 C 147.282 175.161,147.389 174.978,147.389 174.613 C 147.389 174.398,147.475 174.221,147.580 174.221 C 147.686 174.221,147.772 174.049,147.772 173.838 C 147.772 173.627,147.858 173.455,147.964 173.455 C 148.069 173.455,148.155 173.276,148.155 173.058 C 148.155 172.839,148.285 172.531,148.443 172.373 C 148.601 172.215,148.730 171.790,148.730 171.429 C 148.730 171.067,148.816 170.771,148.922 170.771 C 149.027 170.771,149.114 170.345,149.114 169.824 C 149.114 169.304,149.200 168.824,149.305 168.759 C 149.428 168.683,149.497 165.563,149.497 160.027 C 149.497 154.412,149.430 151.414,149.305 151.414 C 149.200 151.414,149.114 150.939,149.114 150.359 C 149.114 149.780,149.027 149.305,148.922 149.305 C 148.816 149.305,148.730 149.001,148.730 148.628 C 148.730 148.204,148.623 147.910,148.443 147.841 C 148.279 147.778,148.155 147.492,148.155 147.176 C 148.155 146.871,148.069 146.622,147.964 146.622 C 147.858 146.622,147.772 146.406,147.772 146.143 C 147.772 145.879,147.686 145.664,147.580 145.664 C 147.475 145.664,147.389 145.547,147.389 145.404 C 147.389 145.261,147.173 144.912,146.909 144.628 C 146.646 144.343,146.430 143.986,146.430 143.833 C 146.430 143.680,146.344 143.555,146.239 143.555 C 146.133 143.555,146.047 143.463,146.047 143.350 C 146.047 143.085,145.559 142.597,145.294 142.597 C 145.181 142.597,145.089 142.499,145.089 142.380 C 145.089 142.110,144.116 141.256,143.809 141.256 C 143.685 141.255,143.426 141.058,143.234 140.817 C 143.042 140.576,142.583 140.260,142.214 140.115 C 141.280 139.749,141.157 139.601,141.503 139.255 C 141.668 139.090,141.853 138.955,141.915 138.955 C 142.133 138.955,143.359 138.091,143.361 137.936 C 143.364 137.748,143.859 137.230,144.034 137.230 C 144.234 137.230,144.705 136.701,144.705 136.478 C 144.705 136.365,144.792 136.272,144.897 136.272 C 145.002 136.272,145.089 136.100,145.089 135.889 C 145.089 135.676,145.216 135.506,145.376 135.506 C 145.534 135.506,145.664 135.376,145.664 135.218 C 145.664 135.060,145.750 134.931,145.855 134.931 C 145.961 134.931,146.047 134.758,146.047 134.547 C 146.047 134.336,146.133 134.164,146.239 134.164 C 146.344 134.164,146.430 133.948,146.430 133.685 C 146.430 133.421,146.510 133.206,146.608 133.206 C 146.878 133.206,147.389 132.066,147.389 131.462 C 147.389 131.169,147.475 130.875,147.580 130.810 C 147.686 130.745,147.772 130.265,147.772 129.744 C 147.772 129.223,147.858 128.797,147.964 128.797 C 148.082 128.797,148.155 127.815,148.155 126.233 C 148.155 124.188,148.213 123.621,148.443 123.431 C 148.656 123.254,148.730 122.781,148.730 121.600 C 148.730 120.441,148.652 119.930,148.443 119.721 C 148.218 119.496,148.155 118.911,148.155 117.035 C 148.155 115.643,148.075 114.587,147.964 114.518 C 147.858 114.453,147.772 113.974,147.772 113.453 C 147.772 112.932,147.686 112.506,147.580 112.506 C 147.475 112.506,147.389 112.252,147.389 111.942 C 147.389 111.632,147.302 111.325,147.197 111.260 C 147.092 111.195,147.005 110.928,147.005 110.668 C 147.005 110.407,146.876 110.144,146.718 110.084 C 146.560 110.023,146.430 109.767,146.430 109.515 C 146.430 109.262,146.344 109.056,146.239 109.056 C 146.133 109.056,146.047 108.913,146.047 108.739 C 146.047 108.426,145.153 107.104,144.857 106.980 C 144.774 106.945,144.705 106.831,144.705 106.726 C 144.705 106.516,144.226 105.989,144.034 105.989 C 143.875 105.989,143.364 105.479,143.364 105.319 C 143.364 105.121,142.930 104.766,142.310 104.456 C 141.993 104.299,141.666 104.061,141.581 103.929 C 141.497 103.797,141.260 103.690,141.054 103.690 C 140.849 103.690,140.680 103.603,140.680 103.498 C 140.680 103.392,140.508 103.306,140.297 103.306 C 140.086 103.306,139.914 103.220,139.914 103.115 C 139.914 103.009,139.735 102.923,139.517 102.923 C 139.298 102.923,138.990 102.793,138.832 102.635 C 138.674 102.477,138.335 102.348,138.079 102.348 C 137.823 102.348,137.614 102.262,137.614 102.156 C 137.614 102.051,137.231 101.965,136.763 101.965 C 136.294 101.965,135.858 101.878,135.793 101.773 C 135.728 101.667,135.081 101.581,134.356 101.581 C 133.630 101.581,132.983 101.495,132.918 101.390 C 132.841 101.265,128.699 101.198,121.119 101.198 L 109.439 101.198 109.439 142.118 M130.139 113.656 C 130.139 113.761,130.432 113.848,130.789 113.848 C 131.191 113.848,131.482 113.958,131.550 114.135 C 131.611 114.293,131.801 114.423,131.973 114.423 C 132.145 114.423,132.527 114.681,132.822 114.998 C 133.118 115.314,133.454 115.573,133.570 115.573 C 133.686 115.573,133.781 115.788,133.781 116.052 C 133.781 116.315,133.867 116.531,133.972 116.531 C 134.078 116.531,134.164 116.833,134.164 117.202 C 134.164 117.571,134.243 117.873,134.340 117.873 C 134.704 117.873,135.097 126.791,134.748 127.140 C 134.638 127.250,134.547 127.884,134.547 128.548 C 134.547 129.225,134.463 129.756,134.356 129.756 C 134.250 129.756,134.164 129.971,134.164 130.235 C 134.164 130.498,134.078 130.714,133.972 130.714 C 133.867 130.714,133.781 130.886,133.781 131.097 C 133.781 131.310,133.653 131.481,133.493 131.481 C 133.335 131.481,133.206 131.577,133.206 131.694 C 133.206 131.969,131.901 133.168,131.445 133.313 C 131.254 133.373,131.097 133.503,131.097 133.602 C 131.097 133.700,130.795 133.781,130.426 133.781 C 130.057 133.781,129.756 133.867,129.756 133.972 C 129.756 134.093,128.510 134.164,126.402 134.164 L 123.047 134.164 123.047 123.814 L 123.047 113.464 126.593 113.464 C 128.829 113.464,130.139 113.535,130.139 113.656 M81.265 121.131 C 81.265 122.025,81.345 122.664,81.457 122.664 C 81.566 122.664,81.648 123.231,81.648 123.982 C 81.648 124.920,81.731 125.369,81.936 125.539 C 82.140 125.709,82.223 126.158,82.223 127.096 C 82.223 127.847,82.306 128.414,82.415 128.414 C 82.527 128.414,82.607 129.053,82.607 129.947 C 82.607 130.842,82.686 131.481,82.798 131.481 C 82.907 131.481,82.990 132.048,82.990 132.799 C 82.990 133.737,83.073 134.186,83.277 134.356 C 83.482 134.525,83.565 134.974,83.565 135.912 C 83.565 136.663,83.647 137.230,83.757 137.230 C 83.868 137.230,83.948 137.869,83.948 138.764 C 83.948 139.658,84.028 140.297,84.140 140.297 C 84.251 140.297,84.332 140.900,84.332 141.723 C 84.332 142.508,84.418 143.203,84.523 143.268 C 84.629 143.333,84.715 143.893,84.715 144.511 C 84.715 145.256,84.812 145.734,85.002 145.924 C 85.207 146.129,85.290 146.628,85.290 147.662 C 85.290 148.502,85.371 149.114,85.482 149.114 C 85.592 149.114,85.673 149.717,85.673 150.540 C 85.673 151.324,85.759 152.019,85.865 152.084 C 85.970 152.149,86.057 152.801,86.057 153.533 C 86.057 154.588,86.116 154.863,86.344 154.863 C 86.557 154.863,86.632 155.087,86.632 155.726 L 86.632 156.588 81.073 156.588 L 75.515 156.588 75.515 155.247 C 75.515 154.480,75.597 153.905,75.707 153.905 C 75.819 153.905,75.898 153.266,75.898 152.372 C 75.898 151.175,75.958 150.839,76.171 150.839 C 76.372 150.839,76.472 150.463,76.554 149.401 C 76.615 148.610,76.715 147.317,76.776 146.526 C 76.837 145.736,76.966 145.089,77.064 145.089 C 77.161 145.089,77.240 144.399,77.240 143.555 C 77.240 142.358,77.300 142.022,77.512 142.022 C 77.714 142.022,77.814 141.647,77.896 140.585 C 77.957 139.794,78.057 138.500,78.118 137.710 C 78.179 136.919,78.308 136.272,78.405 136.272 C 78.502 136.272,78.582 135.591,78.582 134.759 C 78.582 133.591,78.647 133.221,78.869 133.136 C 79.090 133.052,79.157 132.689,79.157 131.582 C 79.157 130.748,79.238 130.139,79.348 130.139 C 79.458 130.139,79.540 129.564,79.540 128.797 C 79.540 128.031,79.622 127.456,79.732 127.456 C 79.843 127.456,79.923 126.817,79.923 125.922 C 79.923 125.028,80.003 124.389,80.115 124.389 C 80.227 124.389,80.307 123.750,80.307 122.856 C 80.307 121.621,80.363 121.322,80.594 121.322 C 80.807 121.322,80.882 121.099,80.882 120.460 C 80.882 119.986,80.968 119.598,81.073 119.598 C 81.185 119.598,81.265 120.236,81.265 121.131 M129.303 146.718 C 129.384 146.928,129.714 147.005,130.531 147.005 C 131.146 147.005,131.703 147.092,131.768 147.197 C 131.833 147.302,132.060 147.389,132.272 147.389 C 132.484 147.389,132.767 147.496,132.900 147.628 C 133.033 147.760,133.372 148.039,133.653 148.249 C 133.934 148.458,134.164 148.699,134.164 148.784 C 134.164 148.870,134.379 149.155,134.643 149.418 C 134.907 149.682,135.122 150.023,135.122 150.176 C 135.122 150.330,135.208 150.455,135.314 150.455 C 135.419 150.455,135.506 150.757,135.506 151.126 C 135.506 151.495,135.592 151.797,135.697 151.797 C 135.822 151.797,135.889 154.416,135.889 159.272 C 135.889 164.127,135.822 166.747,135.697 166.747 C 135.592 166.747,135.506 166.920,135.506 167.132 C 135.506 167.567,135.190 168.172,134.691 168.695 C 134.506 168.888,134.356 169.133,134.356 169.238 C 134.356 169.344,134.226 169.430,134.068 169.430 C 133.910 169.430,133.781 169.516,133.781 169.621 C 133.781 169.727,133.651 169.813,133.493 169.813 C 133.335 169.813,133.206 169.943,133.206 170.101 C 133.206 170.292,133.014 170.388,132.631 170.388 C 132.314 170.388,132.056 170.474,132.056 170.580 C 132.056 170.702,130.426 170.771,127.552 170.771 L 123.047 170.771 123.047 158.601 L 123.047 146.430 126.120 146.430 C 128.674 146.430,129.211 146.479,129.303 146.718 M354.384 167.801 L 354.384 189.171 375.755 189.171 L 397.125 189.171 397.125 167.801 L 397.125 146.430 375.755 146.430 L 354.384 146.430 354.384 167.801 M210.062 167.598 C 210.062 181.247,210.128 188.422,210.254 188.500 C 210.381 188.579,210.446 181.602,210.446 167.716 C 210.446 153.909,210.381 146.814,210.254 146.814 C 210.127 146.814,210.062 153.869,210.062 167.598 " stroke="none" fill="#fcfcfc" fill-rule="evenodd"></path><path id="path2" d="M210.573 2.044 C 210.503 2.115,210.446 11.731,210.446 23.415 L 210.446 44.657 231.720 44.657 L 252.995 44.657 252.995 23.405 L 252.995 2.153 252.563 2.037 C 251.970 1.878,210.732 1.885,210.573 2.044 M210.493 71.538 L 210.541 93.052 231.227 93.101 C 247.434 93.139,252.031 93.098,252.454 92.910 L 252.995 92.671 252.995 71.348 L 252.995 50.024 231.719 50.024 L 210.444 50.024 210.493 71.538 M210.573 98.259 C 210.503 98.329,210.446 108.032,210.446 119.821 L 210.446 141.255 231.417 141.255 C 242.951 141.255,252.525 141.203,252.692 141.139 C 253.130 140.971,253.159 98.843,252.721 98.405 C 252.431 98.115,210.862 97.971,210.573 98.259 M266.507 98.273 C 286.170 98.404,300.910 98.405,300.910 98.275 C 300.910 98.196,291.488 98.152,279.971 98.177 C 268.455 98.202,262.396 98.245,266.507 98.273 M210.446 167.802 L 210.446 189.171 231.385 189.165 C 248.492 189.160,252.385 189.112,252.659 188.904 C 252.975 188.664,252.995 187.420,252.995 167.542 L 252.995 146.434 231.720 146.434 L 210.446 146.434 210.446 167.802 " stroke="none" fill="#a4a4a4" fill-rule="evenodd"></path><path id="path3" d="M327.577 98.276 C 309.167 98.319,306.833 98.357,307.044 98.611 C 307.211 98.812,307.217 98.898,307.065 98.898 C 306.905 98.898,306.861 104.320,306.898 119.695 C 306.933 134.476,306.888 140.470,306.742 140.414 C 306.628 140.370,306.549 140.520,306.566 140.747 L 306.596 141.160 327.648 141.208 C 339.227 141.235,348.649 141.206,348.587 141.144 C 348.525 141.082,348.640 140.866,348.842 140.664 C 349.259 140.247,349.435 99.486,349.023 98.716 C 348.747 98.201,349.856 98.224,327.577 98.276 M349.018 119.574 C 349.018 135.881,348.967 140.292,348.778 140.449 C 348.587 140.608,348.549 136.456,348.588 119.773 C 348.621 106.141,348.704 98.898,348.828 98.898 C 348.952 98.898,349.018 106.040,349.018 119.574 M338.045 140.441 C 332.379 140.469,323.107 140.469,317.441 140.441 C 311.775 140.413,316.411 140.390,327.743 140.390 C 339.075 140.390,343.711 140.413,338.045 140.441 M306.596 146.558 C 306.388 146.767,306.450 146.957,306.766 147.078 C 306.937 147.144,307.014 147.112,306.946 147.003 C 306.882 146.899,306.926 146.814,307.044 146.814 C 307.161 146.814,307.205 146.727,307.139 146.622 C 307.003 146.401,306.780 146.374,306.596 146.558 M348.334 146.643 C 348.249 146.781,348.358 147.012,348.603 147.210 L 349.016 147.544 349.066 168.118 L 349.115 188.692 349.143 168.088 C 349.159 156.756,349.113 147.275,349.041 147.019 C 348.892 146.487,348.545 146.302,348.334 146.643 M327.602 147.342 L 306.857 147.390 306.807 168.137 C 306.779 179.548,306.783 188.948,306.815 189.027 C 306.961 189.382,348.634 189.191,348.636 188.836 C 348.696 177.077,348.590 147.471,348.489 147.396 C 348.411 147.339,339.012 147.315,327.602 147.342 M338.045 188.548 C 332.379 188.576,323.107 188.576,317.441 188.548 C 311.775 188.520,316.411 188.497,327.743 188.497 C 339.075 188.497,343.711 188.520,338.045 188.548 " stroke="none" fill="#dcdcdc" fill-rule="evenodd"></path><path id="path4" d="M306.685 98.389 C 306.315 98.835,306.480 140.913,306.852 141.014 C 307.107 141.084,307.107 141.068,306.852 140.872 C 306.691 140.749,306.649 140.615,306.756 140.570 C 306.883 140.516,306.931 133.422,306.898 119.693 C 306.861 104.320,306.905 98.898,307.065 98.898 C 307.217 98.898,307.211 98.812,307.044 98.611 C 306.833 98.357,309.167 98.319,327.577 98.275 L 348.347 98.225 327.623 98.178 C 310.444 98.139,306.862 98.175,306.685 98.389 M348.876 98.863 C 348.689 98.982,348.627 103.510,348.588 119.831 C 348.549 136.389,348.587 140.607,348.776 140.450 C 348.963 140.296,349.025 135.737,349.064 119.480 C 349.091 108.054,349.114 98.708,349.114 98.709 C 349.114 98.711,349.007 98.780,348.876 98.863 M317.441 140.441 C 323.107 140.469,332.379 140.469,338.045 140.441 C 343.711 140.413,339.075 140.390,327.743 140.390 C 316.411 140.390,311.775 140.413,317.441 140.441 M307.160 146.655 C 307.255 146.809,307.190 146.837,306.952 146.746 C 306.658 146.633,306.643 146.657,306.852 146.909 C 307.059 147.159,307.048 147.187,306.783 147.085 C 306.424 146.947,306.284 188.843,306.642 189.064 C 306.738 189.123,306.774 188.977,306.722 188.740 C 306.665 188.480,306.691 188.396,306.787 188.530 C 306.876 188.652,306.925 179.445,306.897 168.072 L 306.847 147.392 327.663 147.342 C 339.112 147.315,348.514 147.348,348.555 147.416 C 348.597 147.483,348.633 156.919,348.636 168.383 C 348.639 179.848,348.704 189.165,348.781 189.088 C 349.022 188.847,349.145 147.234,348.905 147.326 C 348.627 147.432,348.184 146.885,348.342 146.630 C 348.427 146.492,342.089 146.430,327.743 146.430 C 311.971 146.430,307.054 146.484,307.160 146.655 M317.441 188.548 C 323.107 188.576,332.379 188.576,338.045 188.548 C 343.711 188.520,339.075 188.497,327.743 188.497 C 316.411 188.497,311.775 188.520,317.441 188.548 " stroke="none" fill="#dcd4d4" fill-rule="evenodd"></path></g></svg>